<svg width="74" height="74" viewBox="0 0 74 74" fill="none" xmlns="http://www.w3.org/2000/svg">
<path d="M67.3018 24.0788V24.0802V49.9185C67.3018 55.4308 65.6607 59.7701 62.7 62.7308C59.7392 65.6916 55.3999 67.3327 49.8877 67.3327H24.0802C18.568 67.3327 14.2288 65.6916 11.2681 62.7272C8.30737 59.7627 6.66602 55.4157 6.66602 49.8877V24.0802C6.66602 18.568 8.30715 14.2287 11.2679 11.2679C14.2287 8.30715 18.568 6.66602 24.0802 6.66602H49.9185C55.4308 6.66602 59.7699 8.30719 62.7267 11.2677C65.6834 14.2281 67.317 18.5669 67.3018 24.0788ZM39.8118 49.3327V39.8119H49.3327C50.873 39.8119 52.1452 38.5397 52.1452 36.9994C52.1452 35.459 50.873 34.1868 49.3327 34.1868H39.8118V24.666C39.8118 23.1257 38.5397 21.8535 36.9993 21.8535C35.459 21.8535 34.1868 23.1257 34.1868 24.666V34.1868H24.666C23.1257 34.1868 21.8535 35.459 21.8535 36.9994C21.8535 38.5397 23.1257 39.8119 24.666 39.8119H34.1868V49.3327C34.1868 50.873 35.459 52.1452 36.9993 52.1452C38.5397 52.1452 39.8118 50.873 39.8118 49.3327Z" fill="#42535C" fill-opacity="0.3" stroke="white"/>
</svg>
