<svg width="74" height="74" viewBox="0 0 74 74" fill="none" xmlns="http://www.w3.org/2000/svg">
<path d="M70.9163 69.6458H3.08301C2.09498 69.6458 1.27051 68.8213 1.27051 67.8333C1.27051 66.8452 2.09498 66.0208 3.08301 66.0208H70.9163C71.9044 66.0208 72.7288 66.8452 72.7288 67.8333C72.7288 68.8213 71.9044 69.6458 70.9163 69.6458Z" fill="#004D71" stroke="white"/>
<path d="M60.9893 69.6768C60.0012 69.6768 59.1768 68.8523 59.1768 67.8643V54.1125C59.1768 53.1245 60.0012 52.3 60.9893 52.3C61.9773 52.3 62.8018 53.1245 62.8018 54.1125V67.8643C62.8018 68.8567 62.0038 69.6768 60.9893 69.6768Z" fill="#004D71" stroke="white"/>
<path d="M61.05 55.9249C56.3003 55.9249 52.4541 52.0787 52.4541 47.329V40.33C52.4541 35.5803 56.3003 31.7341 61.05 31.7341C65.7997 31.7341 69.6458 35.5803 69.6458 40.33V47.329C69.6458 52.0787 65.7997 55.9249 61.05 55.9249ZM61.05 35.39C58.3072 35.39 56.0791 37.6181 56.0791 40.3609V47.3599C56.0791 50.1027 58.3072 52.3308 61.05 52.3308C63.7928 52.3308 66.0208 50.1027 66.0208 47.3599V40.3609C66.0208 37.6181 63.7928 35.39 61.05 35.39Z" fill="#004D71" stroke="white"/>
<path d="M44.0907 69.6457C43.1027 69.6457 42.2782 68.8213 42.2782 67.8332V18.5925C42.2782 16.0853 41.7522 14.177 40.5007 12.9039C39.2472 11.6288 37.3672 11.0933 34.9025 11.0933H15.6934C13.2139 11.0933 11.3195 11.6285 10.0545 12.9021C8.79041 14.1749 8.25586 16.0837 8.25586 18.5925V67.8332C8.25586 68.8213 7.43138 69.6457 6.44336 69.6457C5.45534 69.6457 4.63086 68.8213 4.63086 67.8332V18.5925C4.63086 14.9347 5.63058 12.1721 7.46858 10.3232C9.30612 8.47479 12.0526 7.46826 15.6934 7.46826H34.9025C38.5272 7.46826 41.2578 8.47443 43.0838 10.3221C44.9107 12.1708 45.9032 14.9337 45.9032 18.5925V67.8332C45.9032 68.8213 45.0788 69.6457 44.0907 69.6457Z" fill="#004D71" stroke="white"/>
<path d="M33.1453 27.25H17.8828C16.8948 27.25 16.0703 26.4255 16.0703 25.4375C16.0703 24.4495 16.8948 23.625 17.8828 23.625H33.1453C34.1334 23.625 34.9578 24.4495 34.9578 25.4375C34.9578 26.4255 34.1334 27.25 33.1453 27.25Z" fill="#004D71" stroke="white"/>
<path d="M33.1453 38.8125H17.8828C16.8948 38.8125 16.0703 37.988 16.0703 37C16.0703 36.012 16.8948 35.1875 17.8828 35.1875H33.1453C34.1334 35.1875 34.9578 36.012 34.9578 37C34.9578 37.988 34.1334 38.8125 33.1453 38.8125Z" fill="#004D71" stroke="white"/>
<path d="M25.4375 69.6458C24.4495 69.6458 23.625 68.8213 23.625 67.8333V56.2708C23.625 55.2827 24.4495 54.4583 25.4375 54.4583C26.4255 54.4583 27.25 55.2827 27.25 56.2708V67.8333C27.25 68.8213 26.4255 69.6458 25.4375 69.6458Z" fill="#004D71" stroke="white"/>
</svg>
