<svg width="74" height="74" viewBox="0 0 74 74" fill="none" xmlns="http://www.w3.org/2000/svg">
<path d="M61.6655 36.2299H12.3321C11.623 36.2299 10.9755 35.9216 10.5438 35.3666C10.1121 34.8424 9.92712 34.1024 10.0813 33.4241L13.5655 16.7741C14.7063 11.3782 17.0188 6.41406 26.1763 6.41406H47.8521C57.0096 6.41406 59.3221 11.4091 60.463 16.7741L63.9471 33.4549C64.1013 34.1332 63.9163 34.8424 63.4846 35.3974C63.0221 35.9216 62.3746 36.2299 61.6655 36.2299ZM15.1688 31.6049H58.798L55.8996 17.7299C55.0363 13.6907 54.0188 11.0391 47.8213 11.0391H26.1763C19.9788 11.0391 18.9613 13.6907 18.098 17.7299L15.1688 31.6049Z" fill="#004D71"/>
<path d="M61.5421 70.1452H55.7454C50.7504 70.1452 49.7946 67.2777 49.1779 65.3968L48.5613 63.5468C47.7596 61.2035 47.6671 60.8952 44.8921 60.8952H29.1054C26.3304 60.8952 26.1454 61.4193 25.4363 63.5468L24.8196 65.3968C24.1721 67.3085 23.2471 70.1452 18.2521 70.1452H12.4554C10.0196 70.1452 7.67626 69.1277 6.04209 67.3393C4.43876 65.5818 3.66793 63.2385 3.88376 60.8952L5.61043 42.1177C6.07293 37.0302 7.42959 31.6035 17.3271 31.6035H56.6704C66.5679 31.6035 67.8938 37.0302 68.3871 42.1177L70.1138 60.8952C70.3296 63.2385 69.5588 65.5818 67.9554 67.3393C66.3213 69.1277 63.9779 70.1452 61.5421 70.1452ZM29.1054 56.2702H44.8921C50.5038 56.2702 51.8296 58.7677 52.9396 62.036L53.5871 63.9477C54.1113 65.5202 54.1113 65.551 55.7763 65.551H61.5729C62.7138 65.551 63.7929 65.0885 64.5638 64.256C65.3038 63.4543 65.6429 62.4368 65.5504 61.3577L63.8238 42.5802C63.4229 38.4177 62.9296 36.2593 56.7321 36.2593H17.3271C11.0988 36.2593 10.6054 38.4177 10.2354 42.5802L8.50876 61.3577C8.41626 62.4368 8.75543 63.4543 9.49543 64.256C10.2354 65.0885 11.3454 65.551 12.4863 65.551H18.2829C19.9479 65.551 19.9479 65.5202 20.4721 63.9785L21.0888 62.0977C21.8596 59.631 23.0004 56.2702 29.1054 56.2702Z" fill="#004D71"/>
<path d="M12.3321 26.9785H9.24878C7.98461 26.9785 6.93628 25.9302 6.93628 24.666C6.93628 23.4018 7.98461 22.3535 9.24878 22.3535H12.3321C13.5963 22.3535 14.6446 23.4018 14.6446 24.666C14.6446 25.9302 13.5963 26.9785 12.3321 26.9785Z" fill="#004D71"/>
<path d="M64.7489 26.9785H61.6655C60.4014 26.9785 59.353 25.9302 59.353 24.666C59.353 23.4018 60.4014 22.3535 61.6655 22.3535H64.7489C66.013 22.3535 67.0614 23.4018 67.0614 24.666C67.0614 25.9302 66.013 26.9785 64.7489 26.9785Z" fill="#004D71"/>
<path d="M36.9988 17.7292C35.7346 17.7292 34.6863 16.6808 34.6863 15.4167V9.25C34.6863 7.98583 35.7346 6.9375 36.9988 6.9375C38.2629 6.9375 39.3113 7.98583 39.3113 9.25V15.4167C39.3113 16.6808 38.2629 17.7292 36.9988 17.7292Z" fill="#004D71"/>
<path d="M41.6238 17.7285H32.3738C31.1096 17.7285 30.0613 16.6802 30.0613 15.416C30.0613 14.1518 31.1096 13.1035 32.3738 13.1035H41.6238C42.8879 13.1035 43.9363 14.1518 43.9363 15.416C43.9363 16.6802 42.8879 17.7285 41.6238 17.7285Z" fill="#004D71"/>
<path d="M27.7488 48.5625H18.4988C17.2346 48.5625 16.1863 47.5142 16.1863 46.25C16.1863 44.9858 17.2346 43.9375 18.4988 43.9375H27.7488C29.0129 43.9375 30.0613 44.9858 30.0613 46.25C30.0613 47.5142 29.0129 48.5625 27.7488 48.5625Z" fill="#004D71"/>
<path d="M55.4988 48.5625H46.2488C44.9846 48.5625 43.9363 47.5142 43.9363 46.25C43.9363 44.9858 44.9846 43.9375 46.2488 43.9375H55.4988C56.7629 43.9375 57.8113 44.9858 57.8113 46.25C57.8113 47.5142 56.7629 48.5625 55.4988 48.5625Z" fill="#004D71"/>
</svg>
