<svg width="20" height="20" viewBox="0 0 20 20" fill="none" xmlns="http://www.w3.org/2000/svg">
<path d="M18.9166 1.08176C18.365 0.530163 17.4707 0.530163 16.9191 1.08176L9.9987 8.00217L3.07828 1.08176C2.52669 0.530162 1.63238 0.530164 1.08078 1.08176V1.08176C0.529187 1.63335 0.529187 2.52766 1.08078 3.07926L8.0012 9.99967L1.08078 16.9201C0.529186 17.4717 0.529187 18.366 1.08078 18.9176V18.9176C1.63238 19.4692 2.52669 19.4692 3.07828 18.9176L9.9987 11.9972L16.9191 18.9176C17.4707 19.4692 18.365 19.4692 18.9166 18.9176V18.9176C19.4682 18.366 19.4682 17.4717 18.9166 16.9201L11.9962 9.99967L18.9166 3.07926C19.4682 2.52766 19.4682 1.63335 18.9166 1.08176V1.08176Z" fill="#004D71"/>
</svg>
