<svg width="34" height="34" viewBox="0 0 34 34" fill="none" xmlns="http://www.w3.org/2000/svg">
<path d="M15.4983 32.0875C14.8183 32.0875 14.1525 31.9175 13.5292 31.5775C12.2825 30.8833 11.5317 29.6225 11.5317 28.2058V20.6975C11.5317 19.9891 11.0642 18.9266 10.625 18.3883L5.32668 12.7783C4.43418 11.8858 3.75418 10.3558 3.75418 9.20831V5.94998C3.75418 3.68331 5.46835 1.91248 7.65001 1.91248H26.35C28.5033 1.91248 30.2458 3.65498 30.2458 5.80831V8.92498C30.2458 10.4125 29.3533 12.0983 28.5175 12.9341L22.3833 18.36C21.7883 18.8558 21.3208 19.9466 21.3208 20.825V26.9166C21.3208 28.1775 20.5275 29.6366 19.5358 30.2316L17.5808 31.4925C16.9433 31.8891 16.2208 32.0875 15.4983 32.0875ZM7.65001 4.03748C6.65835 4.03748 5.87918 4.87331 5.87918 5.94998V9.20831C5.87918 9.73248 6.30418 10.7525 6.84251 11.2908L12.24 16.9716C12.9625 17.8641 13.6708 19.3516 13.6708 20.6833V28.1916C13.6708 29.1125 14.3083 29.5658 14.5775 29.7075C15.1725 30.0333 15.895 30.0333 16.4475 29.6933L18.4167 28.4325C18.8133 28.1916 19.21 27.4266 19.21 26.9166V20.825C19.21 19.3091 19.9467 17.6375 21.0092 16.745L27.0725 11.3758C27.5542 10.8941 28.135 9.74664 28.135 8.91081V5.80831C28.135 4.83081 27.3417 4.03748 26.3642 4.03748H7.65001V4.03748Z" fill="#004D71"/>
<path d="M8.50001 15.2292C8.30168 15.2292 8.11751 15.1725 7.93334 15.0733C7.43751 14.7617 7.28168 14.0958 7.59334 13.6L14.5775 2.40832C14.8892 1.91249 15.5408 1.75665 16.0367 2.06832C16.5325 2.37999 16.6883 3.03165 16.3767 3.52749L9.39251 14.7192C9.19418 15.045 8.85418 15.2292 8.50001 15.2292Z" fill="#004D71"/>
</svg>
