<svg width="74" height="74" viewBox="0 0 74 74" fill="none" xmlns="http://www.w3.org/2000/svg">
<path d="M10.792 67.8334V15.4167C10.792 9.25008 14.9237 6.16675 20.042 6.16675H44.7087C49.827 6.16675 53.9587 9.25008 53.9587 15.4167V67.8334H10.792Z" stroke="#004D71" stroke-width="2.5" stroke-linecap="round" stroke-linejoin="round"/>
<path d="M6.16699 67.8333H58.5837" stroke="#004D71" stroke-width="2.5" stroke-linecap="round" stroke-linejoin="round"/>
<path d="M25.8695 30.8332H38.912C42.1187 30.8332 44.7395 29.2916 44.7395 25.0057V21.2132C44.7395 16.9274 42.1187 15.3857 38.912 15.3857H25.8695C22.6628 15.3857 20.042 16.9274 20.042 21.2132V25.0057C20.042 29.2916 22.6628 30.8332 25.8695 30.8332Z" stroke="#004D71" stroke-width="2.5" stroke-linecap="round" stroke-linejoin="round"/>
<path d="M20.042 40.0833H29.292" stroke="#004D71" stroke-width="2.5" stroke-linecap="round" stroke-linejoin="round"/>
<path d="M53.958 49.3642L67.833 49.3333V30.8333L61.6663 27.75" stroke="#004D71" stroke-width="2.5" stroke-linecap="round" stroke-linejoin="round"/>
</svg>
