<svg width="74" height="74" viewBox="0 0 74 74" fill="none" xmlns="http://www.w3.org/2000/svg">
<path d="M37.0003 69.6459C18.9923 69.6459 4.35449 55.0081 4.35449 37.0001C4.35449 18.9921 18.9923 4.35425 37.0003 4.35425C55.0084 4.35425 69.6462 18.9921 69.6462 37.0001C69.6462 55.0081 55.0084 69.6459 37.0003 69.6459ZM37.0003 7.97925C20.9992 7.97925 7.97949 20.9989 7.97949 37.0001C7.97949 53.0012 20.9992 66.0209 37.0003 66.0209C53.0015 66.0209 66.0212 53.0012 66.0212 37.0001C66.0212 20.9989 53.0015 7.97925 37.0003 7.97925Z" fill="#004D71" stroke="white"/>
<path d="M24.6174 62.9374L25.268 62.9215L25.0851 62.2969C20.2711 45.8621 20.2711 28.1379 25.0851 11.703L25.268 11.0785L24.6174 11.0626C23.6263 11.0385 22.8544 10.2445 22.8544 9.25C22.8544 8.26198 23.6789 7.4375 24.6669 7.4375H27.7502C28.3254 7.4375 28.8848 7.72679 29.225 8.18509C29.5666 8.67637 29.6576 9.27809 29.4672 9.82574L29.4671 9.82572L29.465 9.83214C23.6342 27.3555 23.6343 46.6445 29.4649 64.1984L29.4648 64.1985L29.4672 64.2051C29.6569 64.7507 29.5673 65.3501 29.2287 65.8404C28.8869 66.2733 28.3251 66.5625 27.7502 66.5625H24.6669C23.6789 66.5625 22.8544 65.738 22.8544 64.75C22.8544 63.7555 23.6263 62.9615 24.6174 62.9374Z" fill="#004D71" stroke="white"/>
<path d="M45.686 66.471L45.6773 66.4678L45.6685 66.4648C44.7218 66.1493 44.1987 65.1071 44.5318 64.179L44.532 64.179L44.5357 64.1679C50.3665 46.6445 50.3664 27.3555 44.5358 9.80158L44.5356 9.80108C44.2205 8.85593 44.7325 7.81746 45.6668 7.50496C46.6443 7.18829 47.6534 7.70189 47.9652 8.63731L47.9653 8.63754C54.0669 26.9115 54.0668 47.0269 47.9654 65.2698L47.9631 65.2765L47.9611 65.2833C47.7196 66.0802 46.9964 66.5625 46.2504 66.5625C46.0461 66.5625 45.8621 66.5371 45.686 66.471Z" fill="#004D71" stroke="white"/>
<path d="M11.7039 48.9153L11.0789 48.7311L11.0627 49.3824C11.0385 50.3475 10.24 51.1458 9.25 51.1458C8.26198 51.1458 7.4375 50.3213 7.4375 49.3333V46.2499C7.4375 45.6747 7.72679 45.1153 8.18508 44.7752C8.67636 44.4336 9.27809 44.3425 9.82574 44.533L9.82572 44.5331L9.83214 44.5352C27.3554 50.366 46.6754 50.366 64.1987 44.5352L64.1987 44.5352L64.2051 44.533C64.7546 44.3419 65.3586 44.4342 65.8508 44.7787C66.3238 45.1099 66.5933 45.6606 66.5933 46.2499V49.3333C66.5933 50.3213 65.7689 51.1458 64.7808 51.1458C63.7863 51.1458 62.9924 50.3738 62.9682 49.3828L62.9523 48.7317L62.3274 48.9152C54.08 51.3373 45.5559 52.5333 37 52.5333C28.444 52.5333 19.9201 51.3373 11.7039 48.9153Z" fill="#004D71" stroke="white"/>
<path d="M64.1852 29.471L64.1764 29.4677L64.1675 29.4648C46.6448 23.6342 27.3255 23.634 9.80262 29.4642C8.82753 29.7802 7.82097 29.27 7.5064 28.3391C7.21551 27.3559 7.73467 26.3462 8.66777 26.0352L8.66801 26.0351C26.942 19.9336 47.0574 19.9337 65.3002 26.035L65.3007 26.0352C66.2474 26.3508 66.7706 27.3929 66.4374 28.3211L66.4322 28.3357L66.4278 28.3506C66.2184 29.0718 65.5057 29.5625 64.7497 29.5625C64.5453 29.5625 64.3613 29.5371 64.1852 29.471Z" fill="#004D71" stroke="white"/>
</svg>
