<svg width="24" height="24" viewBox="0 0 24 24" fill="none" xmlns="http://www.w3.org/2000/svg">
<path d="M12 22.0002C17.51 22.0002 22 17.5102 22 12.0002C22 6.49024 17.51 2.00024 12 2.00025C6.49 2.00025 2 6.49025 2 12.0002C2 17.5102 6.49 22.0002 12 22.0002ZM12.75 16.0002C12.75 16.4102 12.41 16.7502 12 16.7502C11.59 16.7502 11.25 16.4102 11.25 16.0002L11.25 11.0002C11.25 10.5902 11.59 10.2502 12 10.2502C12.41 10.2502 12.75 10.5902 12.75 11.0002L12.75 16.0002ZM11.08 7.62025C11.13 7.49025 11.2 7.39025 11.29 7.29025C11.39 7.20025 11.5 7.13025 11.62 7.08024C11.74 7.03024 11.87 7.00025 12 7.00025C12.13 7.00025 12.26 7.03024 12.38 7.08024C12.5 7.13025 12.61 7.20025 12.71 7.29025C12.8 7.39025 12.87 7.49025 12.92 7.62025C12.97 7.74025 13 7.87024 13 8.00024C13 8.13025 12.97 8.26025 12.92 8.38025C12.87 8.50024 12.8 8.61024 12.71 8.71024C12.61 8.80025 12.5 8.87024 12.38 8.92025C12.14 9.02025 11.86 9.02025 11.62 8.92025C11.5 8.87024 11.39 8.80025 11.29 8.71025C11.2 8.61024 11.13 8.50025 11.08 8.38025C11.03 8.26025 11 8.13025 11 8.00025C11 7.87024 11.03 7.74025 11.08 7.62025Z" fill="#42535C" fill-opacity="0.3"/>
</svg>
