<svg width="58" height="57" viewBox="0 0 58 57" fill="none" xmlns="http://www.w3.org/2000/svg">
<path d="M46.5009 18.81V31.0413C46.5009 38.3563 42.3209 41.4912 36.0509 41.4912H15.1746C14.1058 41.4912 13.0846 41.3964 12.1346 41.1826C11.5408 41.0876 10.9709 40.9214 10.4484 40.7314C6.88587 39.4014 4.72461 36.3138 4.72461 31.0413V18.81C4.72461 11.495 8.90459 8.36011 15.1746 8.36011H36.0509C41.3709 8.36011 45.1946 10.6163 46.2159 15.7701C46.3821 16.7201 46.5009 17.6938 46.5009 18.81Z" stroke="#004D71" stroke-width="1.5" stroke-miterlimit="10" stroke-linecap="round" stroke-linejoin="round"/>
<path d="M53.628 25.9353V38.1666C53.628 45.4816 49.448 48.6165 43.178 48.6165H22.3017C20.5442 48.6165 18.953 48.3792 17.5755 47.8567C14.7492 46.8117 12.8255 44.6504 12.1367 41.1829C13.0867 41.3967 14.108 41.4915 15.1767 41.4915H36.053C42.323 41.4915 46.503 38.3566 46.503 31.0416V18.8103C46.503 17.6941 46.408 16.6966 46.218 15.7704C50.7305 16.7204 53.628 19.9028 53.628 25.9353Z" stroke="#004D71" stroke-width="1.5" stroke-miterlimit="10" stroke-linecap="round" stroke-linejoin="round"/>
<path d="M25.5982 31.2073C29.061 31.2073 31.8682 28.4001 31.8682 24.9373C31.8682 21.4744 29.061 18.6672 25.5982 18.6672C22.1353 18.6672 19.3281 21.4744 19.3281 24.9373C19.3281 28.4001 22.1353 31.2073 25.5982 31.2073Z" stroke="#004D71" stroke-width="1.5" stroke-miterlimit="10" stroke-linecap="round" stroke-linejoin="round"/>
<path d="M12.0156 19.7125V30.1626" stroke="#004D71" stroke-width="1.5" stroke-miterlimit="10" stroke-linecap="round" stroke-linejoin="round"/>
<path d="M39.1895 19.7133V30.1633" stroke="#004D71" stroke-width="1.5" stroke-miterlimit="10" stroke-linecap="round" stroke-linejoin="round"/>
</svg>
