<svg width="74" height="74" viewBox="0 0 74 74" fill="none" xmlns="http://www.w3.org/2000/svg">
<path d="M54.9553 20.2638L55.1742 20.2726L55.2051 20.2417C55.2786 20.2435 55.3727 20.2498 55.4753 20.2611L55.5157 20.2656L55.5562 20.2635C58.8188 20.0954 61.3312 17.4046 61.3646 14.1268H61.3647V14.1217C61.3647 10.7296 58.6107 7.97919 55.1913 7.97919C51.801 7.97919 49.0488 10.7314 49.0488 14.1217C49.0488 17.4432 51.6355 20.1297 54.9553 20.2638ZM55.4997 23.8892H55.4991H55.4986H55.498H55.4975H55.497H55.4964H55.4959H55.4953H55.4948H55.4943H55.4937H55.4932H55.4927H55.4921H55.4916H55.4911H55.4905H55.49H55.4895H55.489H55.4884H55.4879H55.4874H55.4868H55.4863H55.4858H55.4853H55.4848H55.4842H55.4837H55.4832H55.4827H55.4821H55.4816H55.4811H55.4806H55.4801H55.4795H55.479H55.4785H55.478H55.4775H55.477H55.4765H55.4759H55.4754H55.4749H55.4744H55.4739H55.4734H55.4729H55.4724H55.4719H55.4713H55.4708H55.4703H55.4698H55.4693H55.4688H55.4683H55.4678H55.4673H55.4668H55.4663H55.4658H55.4653H55.4648H55.4643H55.4638H55.4633H55.4628H55.4623H55.4618H55.4613H55.4608H55.4603H55.4598H55.4593H55.4588H55.4583H55.4578H55.4573H55.4568H55.4564H55.4559H55.4554H55.4549H55.4544H55.4539H55.4534H55.4529H55.4524H55.4519H55.4514H55.451H55.4505H55.45H55.4495H55.449H55.4485H55.448H55.4476H55.4471H55.4466H55.4461H55.4456H55.4451H55.4447H55.4442H55.4437H55.4432H55.4427H55.4423H55.4418H55.4413H55.4408H55.4403H55.4399H55.4394H55.4389H55.4384H55.438H55.4375H55.437H55.4365H55.4361H55.4356H55.4351H55.4346H55.4342H55.4337H55.4332H55.4327H55.4323H55.4318H55.4313H55.4308H55.4304H55.4299H55.4294H55.429H55.4285H55.428H55.4276H55.4271H55.4266H55.4262H55.4257H55.4252H55.4247H55.4243H55.4238H55.4233H55.4229H55.4224H55.422H55.4215H55.421H55.4206H55.4201H55.4196H55.4192H55.4187H55.4182H55.4178H55.4173H55.4168H55.4164H55.4159H55.4155H55.415H55.4145H55.4141H55.4136H55.4132H55.4127H55.4122H55.4118H55.4113H55.4109H55.4104H55.4099H55.4095H55.409H55.4086H55.4081H55.4076H55.4072H55.4067H55.4063H55.4058H55.4054H55.4049H55.4044H55.404H55.4035H55.4031H55.4026H55.4022H55.4017H55.4012H55.4008H55.4003H55.3999H55.3994H55.399H55.3985H55.3981H55.3976H55.3971H55.3967H55.3962H55.3958H55.3953H55.3949H55.3944H55.394H55.3935H55.3931H55.3926H55.3922H55.3917H55.3912H55.3908H55.3903H55.3899H55.3894H55.389H55.3885H55.3881H55.3876H55.3872H55.3867H55.3863H55.3858H55.3854H55.3849H55.3845H55.384H55.3836H55.3831H55.3826H55.3822H55.3817H55.3813H55.3808H55.3804H55.3799H55.3795H55.379H55.3786H55.3781H55.3777H55.3772H55.3768H55.3763H55.3759H55.3754H55.375H55.3745H55.3741H55.3736H55.3732H55.3727H55.3723H55.3718H55.3714H55.3709H55.3705H55.37H55.3695H55.3691H55.3686H55.3682H55.3677H55.3673H55.3668H55.3664H55.3659H55.3655H55.365H55.3646H55.3641H55.3637H55.3632H55.3628H55.3623H55.3619H55.3614H55.3609H55.3605H55.36H55.3596H55.3591H55.3587H55.3582H55.3578H55.3573H55.3569H55.3564H55.356H55.3555H55.355H55.3546H55.3541H55.3537H55.3532H55.3528H55.3523H55.3519H55.3514H55.351H55.3505H55.35H55.3496H55.3491H55.3487H55.3482H55.3478H55.3473H55.3468H55.3464H55.3459H55.3455H55.345H55.3445H55.3441H55.3436H55.3432H55.3427H55.3423H55.3418H55.3413H55.3409H55.3404H55.34H55.3395H55.339H55.3386H55.3381H55.3376H55.3372H55.3367H55.3363H55.3358H55.3353H55.3349H55.3344H55.3339H55.3335H55.333H55.3326H55.3321H55.3316H55.3312H55.3307H55.3302H55.3298H55.3293H55.3288H55.3284H55.3279H55.3274H55.327H55.3265H55.326H55.3256H55.3251H55.3246H55.3242H55.3237H55.3232H55.3227H55.3223H55.3218H55.3213H55.3209H55.3204H55.3199H55.3194H55.319H55.3185H55.318H55.3175H55.3171H55.3166H55.3161H55.3156H55.3152H55.3147H55.3142H55.3137H55.3133H55.3128H55.3123H55.3118H55.3113H55.3109H55.3104H55.3099H55.3094H55.309H55.3085H55.308H55.3075H55.307H55.3065H55.3061H55.3056H55.3051H55.3046H55.3041H55.3036H55.3031H55.3027H55.3022H55.3017H55.3012H55.3007H55.3002H55.2997H55.2992H55.2988H55.2983H55.2978H55.2973H55.2968H55.2963H55.2958H55.2953H55.2948H55.2943H55.2938H55.2933H55.2928H55.2923H55.2918H55.2913H55.2909H55.2904H55.2899H55.2894H55.2889H55.2884H55.2879H55.2874H55.2869H55.2864H55.2858H55.2853H55.2848H55.2843H55.2838H55.2833H55.2828H55.2823H55.2818H55.2813H55.2808H55.2803H55.2798H55.2793H55.2788H55.2782H55.2777H55.2772H55.2767H55.2762H55.2757H55.2752H55.2746H55.2741H55.2736H55.2731H55.2726H55.2721H55.2715H55.271H55.2705H55.27H55.2695H55.2689H55.2684H55.2679H55.2674H55.2668H55.2663H55.2658H55.2653H55.2647H55.2642H55.2637H55.2632H55.2626H55.2621H55.2616H55.261H55.2605H55.26H55.2594H55.2589H55.2584H55.2578H55.2573H55.2568H55.2562H55.2557H55.2552H55.2546H55.2541H55.2535H55.253H55.1068C49.5452 23.7087 45.4238 19.4222 45.4238 14.1525C45.4238 8.7563 49.824 4.38501 55.1913 4.38501C60.5572 4.38501 64.9581 8.7854 64.9588 14.1511C64.9291 19.4122 60.8749 23.6582 55.6727 23.9137C55.6251 23.8987 55.5879 23.8944 55.5725 23.8927C55.5484 23.89 55.5286 23.8895 55.52 23.8894C55.5109 23.8892 55.502 23.8892 55.4997 23.8892Z" fill="#004D71" stroke="white"/>
<path d="M52.0117 46.3128L52.0075 46.3121C51.0217 46.1438 50.365 45.2048 50.5354 44.2067C50.7037 43.2208 51.6427 42.5641 52.6409 42.7345C56.5332 43.3991 60.6762 42.6803 63.4847 40.8084C65.0147 39.7989 65.9284 38.4611 65.9284 37.0308C65.9284 35.5924 64.974 34.2877 63.4878 33.2862L63.4857 33.2848C60.6759 31.4116 56.4694 30.6931 52.5452 31.3894L52.5452 31.3893L52.5368 31.3909C51.558 31.5819 50.6132 30.914 50.4429 29.9167C50.2725 28.9185 50.9292 27.9795 51.915 27.8112L51.915 27.8112L51.9185 27.8106C56.8361 26.9357 61.912 27.8774 65.4896 30.2623C68.0969 32.0106 69.5534 34.4586 69.5534 37.0308C69.5534 39.5748 68.1252 42.0526 65.4902 43.8298C62.7768 45.6182 59.2378 46.6133 55.5309 46.6133C54.3541 46.6133 53.1815 46.5228 52.0117 46.3128Z" fill="#004D71" stroke="white"/>
<path d="M28.4525 14.1218C28.4525 19.3026 24.5199 23.5009 19.4285 23.8689L18.889 21.9419L17.9096 22.1232L18.0732 23.8757C12.933 23.5563 8.947 19.337 8.91748 14.1512C8.91824 8.75365 13.3201 4.35425 18.685 4.35425C24.0513 4.35425 28.4525 8.75539 28.4525 14.1218ZM19.1578 20.2883L19.2098 20.2969L19.2624 20.2946C22.2856 20.1587 24.8891 17.4604 24.8891 14.1526C24.8891 10.7623 22.137 8.01006 18.7467 8.01006C15.3563 8.01006 12.6041 10.7623 12.6041 14.1526C12.6041 17.4434 15.158 20.0931 18.4074 20.2941L18.6325 20.308L18.6762 20.2643C18.6886 20.2643 18.7017 20.2643 18.7158 20.2643C18.9037 20.2643 19.019 20.2651 19.1578 20.2883Z" fill="#004D71" stroke="white"/>
<path d="M21.9889 27.8106L21.9924 27.8112C22.9782 27.9795 23.6349 28.9185 23.4645 29.9167C23.2942 30.914 22.3494 31.5819 21.3706 31.3909L21.3706 31.3909L21.3622 31.3894C17.4366 30.6929 13.2625 31.4124 10.4239 33.2833L10.4237 33.2834C8.8977 34.29 7.979 35.5963 7.979 37.0308C7.979 38.4655 8.92877 39.8017 10.4196 40.8063L10.4217 40.8077C13.2302 42.6801 17.3737 43.3992 21.2665 42.7345C22.2582 42.5652 23.2032 43.2454 23.3722 44.2077C23.5419 45.2055 22.8853 46.1439 21.8999 46.3121L21.8999 46.3121L21.8957 46.3129C20.7259 46.5228 19.5533 46.6133 18.3765 46.6133C14.6693 46.6133 11.1302 45.6181 8.41662 43.8295C5.81194 42.0825 4.354 39.6046 4.354 37.0308C4.354 34.4885 5.81142 32.0099 8.41775 30.2623C11.9954 27.8774 17.0713 26.9357 21.9889 27.8106Z" fill="#004D71" stroke="white"/>
<path d="M36.4553 43.2963L36.6742 43.3051L36.7051 43.2741C36.7786 43.276 36.8727 43.2822 36.9753 43.2936L37.0157 43.2981L37.0562 43.296C40.3188 43.1278 42.8312 40.4371 42.8646 37.1593H42.8647V37.1542C42.8647 33.7947 40.1125 31.0117 36.6913 31.0117C33.301 31.0117 30.5488 33.7639 30.5488 37.1542C30.5488 40.4757 33.1355 43.1621 36.4553 43.2963ZM36.9997 46.9217H36.9991H36.9986H36.998H36.9975H36.997H36.9964H36.9959H36.9953H36.9948H36.9943H36.9937H36.9932H36.9927H36.9921H36.9916H36.9911H36.9906H36.99H36.9895H36.989H36.9884H36.9879H36.9874H36.9869H36.9863H36.9858H36.9853H36.9848H36.9842H36.9837H36.9832H36.9827H36.9821H36.9816H36.9811H36.9806H36.9801H36.9796H36.979H36.9785H36.978H36.9775H36.977H36.9765H36.9759H36.9754H36.9749H36.9744H36.9739H36.9734H36.9729H36.9724H36.9719H36.9714H36.9708H36.9703H36.9698H36.9693H36.9688H36.9683H36.9678H36.9673H36.9668H36.9663H36.9658H36.9653H36.9648H36.9643H36.9638H36.9633H36.9628H36.9623H36.9618H36.9613H36.9608H36.9603H36.9598H36.9593H36.9588H36.9583H36.9578H36.9573H36.9568H36.9564H36.9559H36.9554H36.9549H36.9544H36.9539H36.9534H36.9529H36.9524H36.9519H36.9515H36.951H36.9505H36.95H36.9495H36.949H36.9485H36.948H36.9476H36.9471H36.9466H36.9461H36.9456H36.9451H36.9447H36.9442H36.9437H36.9432H36.9427H36.9423H36.9418H36.9413H36.9408H36.9403H36.9399H36.9394H36.9389H36.9384H36.938H36.9375H36.937H36.9365H36.9361H36.9356H36.9351H36.9346H36.9342H36.9337H36.9332H36.9327H36.9323H36.9318H36.9313H36.9309H36.9304H36.9299H36.9294H36.929H36.9285H36.928H36.9276H36.9271H36.9266H36.9262H36.9257H36.9252H36.9248H36.9243H36.9238H36.9234H36.9229H36.9224H36.922H36.9215H36.921H36.9206H36.9201H36.9196H36.9192H36.9187H36.9182H36.9178H36.9173H36.9169H36.9164H36.9159H36.9155H36.915H36.9145H36.9141H36.9136H36.9132H36.9127H36.9122H36.9118H36.9113H36.9109H36.9104H36.9099H36.9095H36.909H36.9086H36.9081H36.9076H36.9072H36.9067H36.9063H36.9058H36.9054H36.9049H36.9044H36.904H36.9035H36.9031H36.9026H36.9022H36.9017H36.9012H36.9008H36.9003H36.8999H36.8994H36.899H36.8985H36.8981H36.8976H36.8971H36.8967H36.8962H36.8958H36.8953H36.8949H36.8944H36.894H36.8935H36.8931H36.8926H36.8922H36.8917H36.8912H36.8908H36.8903H36.8899H36.8894H36.889H36.8885H36.8881H36.8876H36.8872H36.8867H36.8863H36.8858H36.8854H36.8849H36.8845H36.884H36.8836H36.8831H36.8827H36.8822H36.8817H36.8813H36.8808H36.8804H36.8799H36.8795H36.879H36.8786H36.8781H36.8777H36.8772H36.8768H36.8763H36.8759H36.8754H36.875H36.8745H36.8741H36.8736H36.8732H36.8727H36.8723H36.8718H36.8714H36.8709H36.8705H36.87H36.8696H36.8691H36.8686H36.8682H36.8677H36.8673H36.8668H36.8664H36.8659H36.8655H36.865H36.8646H36.8641H36.8637H36.8632H36.8628H36.8623H36.8619H36.8614H36.861H36.8605H36.86H36.8596H36.8591H36.8587H36.8582H36.8578H36.8573H36.8569H36.8564H36.856H36.8555H36.8551H36.8546H36.8541H36.8537H36.8532H36.8528H36.8523H36.8519H36.8514H36.851H36.8505H36.85H36.8496H36.8491H36.8487H36.8482H36.8478H36.8473H36.8468H36.8464H36.8459H36.8455H36.845H36.8446H36.8441H36.8436H36.8432H36.8427H36.8423H36.8418H36.8413H36.8409H36.8404H36.84H36.8395H36.839H36.8386H36.8381H36.8377H36.8372H36.8367H36.8363H36.8358H36.8353H36.8349H36.8344H36.834H36.8335H36.833H36.8326H36.8321H36.8316H36.8312H36.8307H36.8302H36.8298H36.8293H36.8288H36.8284H36.8279H36.8274H36.827H36.8265H36.826H36.8256H36.8251H36.8246H36.8242H36.8237H36.8232H36.8227H36.8223H36.8218H36.8213H36.8209H36.8204H36.8199H36.8194H36.819H36.8185H36.818H36.8175H36.8171H36.8166H36.8161H36.8156H36.8152H36.8147H36.8142H36.8137H36.8133H36.8128H36.8123H36.8118H36.8114H36.8109H36.8104H36.8099H36.8094H36.809H36.8085H36.808H36.8075H36.807H36.8065H36.8061H36.8056H36.8051H36.8046H36.8041H36.8036H36.8032H36.8027H36.8022H36.8017H36.8012H36.8007H36.8002H36.7997H36.7992H36.7988H36.7983H36.7978H36.7973H36.7968H36.7963H36.7958H36.7953H36.7948H36.7943H36.7938H36.7933H36.7928H36.7923H36.7919H36.7914H36.7909H36.7904H36.7899H36.7894H36.7889H36.7884H36.7879H36.7874H36.7869H36.7864H36.7859H36.7853H36.7848H36.7843H36.7838H36.7833H36.7828H36.7823H36.7818H36.7813H36.7808H36.7803H36.7798H36.7793H36.7788H36.7782H36.7777H36.7772H36.7767H36.7762H36.7757H36.7752H36.7747H36.7741H36.7736H36.7731H36.7726H36.7721H36.7715H36.771H36.7705H36.77H36.7695H36.7689H36.7684H36.7679H36.7674H36.7669H36.7663H36.7658H36.7653H36.7647H36.7642H36.7637H36.7632H36.7626H36.7621H36.7616H36.761H36.7605H36.76H36.7594H36.7589H36.7584H36.7578H36.7573H36.7568H36.7562H36.7557H36.7552H36.7546H36.7541H36.7535H36.753H36.6068C31.0452 46.7412 26.9238 42.4547 26.9238 37.185C26.9238 31.7888 31.324 27.4175 36.6913 27.4175C42.0572 27.4175 46.4581 31.8179 46.4588 37.1836C46.4291 42.4446 42.3749 46.6907 37.1727 46.9462C37.1251 46.9311 37.0879 46.9269 37.0725 46.9252C37.0484 46.9225 37.0286 46.922 37.02 46.9218C37.0116 46.9217 37.0034 46.9217 37.0003 46.9217H36.9997Z" fill="#004D71" stroke="white"/>
<path d="M26.5708 60.1248C26.5708 58.6943 27.4848 57.3563 29.0152 56.3468L26.5708 60.1248ZM26.5708 60.1248C26.5708 61.5633 27.5252 62.8679 29.0114 63.8695M26.5708 60.1248L29.0114 63.8695M29.0114 63.8695C31.1945 65.341 34.1044 66.0592 36.9837 66.0592M29.0114 63.8695L36.9837 66.0592M36.9837 66.0592C39.8621 66.0592 42.7711 65.3415 44.954 63.8709M36.9837 66.0592L44.954 63.8709M44.954 63.8709C46.4834 62.8615 47.3966 61.5239 47.3966 60.094C47.3966 58.6557 46.4425 57.3513 44.9567 56.3498C42.7876 54.8771 39.8843 54.1672 37.0062 54.1712C34.1274 54.1751 31.2121 54.8932 29.0155 56.3466L44.954 63.8709ZM27.0121 66.8642L27.0101 66.8629C24.4025 65.1146 22.9458 62.6664 22.9458 60.094C22.9458 57.5472 24.3768 55.04 27.0079 53.2957L27.008 53.2957C29.7946 51.4478 33.3941 50.5115 37.0107 50.5115C40.6272 50.5115 44.2183 51.4478 46.9889 53.2948C49.5961 55.043 51.0525 57.491 51.0525 60.0631C51.0525 62.61 49.6215 65.1172 46.9904 66.8614L46.9893 66.8622C44.2166 68.7106 40.6168 69.6765 36.9991 69.6765C33.3783 69.6765 29.7811 68.74 27.0121 66.8642Z" fill="#004D71" stroke="white"/>
</svg>
