<svg width="34" height="34" viewBox="0 0 34 34" fill="none" xmlns="http://www.w3.org/2000/svg">
<path d="M23.7292 10.9791H10.2708C9.69001 10.9791 9.20834 10.4975 9.20834 9.91665V7.08331C9.20834 3.45665 10.8942 1.77081 14.5208 1.77081H19.4792C23.1058 1.77081 24.7917 3.45665 24.7917 7.08331V9.91665C24.7917 10.4975 24.31 10.9791 23.7292 10.9791ZM11.3333 8.85415H22.6667V7.08331C22.6667 4.67498 21.8875 3.89581 19.4792 3.89581H14.5208C12.1125 3.89581 11.3333 4.67498 11.3333 7.08331V8.85415Z" fill="#004D71"/>
<path d="M18.4167 32.2292H15.5833C12.155 32.2292 10.2708 30.345 10.2708 26.9167V21.25C10.2708 20.6692 10.7525 20.1875 11.3333 20.1875H22.6667C23.2475 20.1875 23.7292 20.6692 23.7292 21.25V26.9167C23.7292 30.345 21.845 32.2292 18.4167 32.2292ZM12.3958 22.3125V26.9167C12.3958 29.155 13.345 30.1042 15.5833 30.1042H18.4167C20.655 30.1042 21.6042 29.155 21.6042 26.9167V22.3125H12.3958Z" fill="#004D71"/>
<path d="M25.5 26.5625H22.6667C22.0858 26.5625 21.6042 26.0809 21.6042 25.5V22.3125H12.3958V25.5C12.3958 26.0809 11.9142 26.5625 11.3333 26.5625H8.5C5.07167 26.5625 3.1875 24.6784 3.1875 21.25V14.1667C3.1875 10.7384 5.07167 8.85419 8.5 8.85419H25.5C28.9283 8.85419 30.8125 10.7384 30.8125 14.1667V21.25C30.8125 24.6784 28.9283 26.5625 25.5 26.5625ZM23.7292 24.4375H25.5C27.7383 24.4375 28.6875 23.4884 28.6875 21.25V14.1667C28.6875 11.9284 27.7383 10.9792 25.5 10.9792H8.5C6.26167 10.9792 5.3125 11.9284 5.3125 14.1667V21.25C5.3125 23.4884 6.26167 24.4375 8.5 24.4375H10.2708V21.25C10.2708 20.6692 10.7525 20.1875 11.3333 20.1875H22.6667C23.2475 20.1875 23.7292 20.6692 23.7292 21.25V24.4375Z" fill="#004D71"/>
<path d="M24.0833 22.3125H9.91666C9.33582 22.3125 8.85416 21.8308 8.85416 21.25C8.85416 20.6692 9.33582 20.1875 9.91666 20.1875H24.0833C24.6642 20.1875 25.1458 20.6692 25.1458 21.25C25.1458 21.8308 24.6642 22.3125 24.0833 22.3125Z" fill="#004D71"/>
<path d="M14.1667 16.6458H9.91666C9.33582 16.6458 8.85416 16.1641 8.85416 15.5833C8.85416 15.0025 9.33582 14.5208 9.91666 14.5208H14.1667C14.7475 14.5208 15.2292 15.0025 15.2292 15.5833C15.2292 16.1641 14.7475 16.6458 14.1667 16.6458Z" fill="#004D71"/>
</svg>
