<svg width="34" height="34" viewBox="0 0 34 34" fill="none" xmlns="http://www.w3.org/2000/svg">
<path d="M10.2708 9.91665H23.7292V7.08331C23.7292 4.24998 22.6667 2.83331 19.4792 2.83331H14.5208C11.3333 2.83331 10.2708 4.24998 10.2708 7.08331V9.91665Z" stroke="#004D71" stroke-width="1.5" stroke-miterlimit="10" stroke-linecap="round" stroke-linejoin="round"/>
<path d="M22.6667 21.25V26.9167C22.6667 29.75 21.25 31.1667 18.4167 31.1667H15.5833C12.75 31.1667 11.3333 29.75 11.3333 26.9167V21.25H22.6667Z" stroke="#004D71" stroke-width="1.5" stroke-miterlimit="10" stroke-linecap="round" stroke-linejoin="round"/>
<path d="M29.75 14.1667V21.25C29.75 24.0834 28.3333 25.5 25.5 25.5H22.6667V21.25H11.3333V25.5H8.5C5.66667 25.5 4.25 24.0834 4.25 21.25V14.1667C4.25 11.3334 5.66667 9.91669 8.5 9.91669H25.5C28.3333 9.91669 29.75 11.3334 29.75 14.1667Z" stroke="#004D71" stroke-width="1.5" stroke-miterlimit="10" stroke-linecap="round" stroke-linejoin="round"/>
<path d="M24.0833 21.25H22.3692H9.91666" stroke="#004D71" stroke-width="1.5" stroke-miterlimit="10" stroke-linecap="round" stroke-linejoin="round"/>
<path d="M9.91666 15.5833H14.1667" stroke="#004D71" stroke-width="1.5" stroke-miterlimit="10" stroke-linecap="round" stroke-linejoin="round"/>
</svg>
