<svg width="74" height="74" viewBox="0 0 74 74" fill="none" xmlns="http://www.w3.org/2000/svg">
<path d="M58.4909 70.1452H15.3242C3.76172 70.1452 3.76172 63.7318 3.76172 58.5827V55.4993C3.76172 52.5393 6.19755 50.1035 9.15755 50.1035H64.6576C67.6176 50.1035 70.0534 52.5393 70.0534 55.4993V58.5827C70.0534 63.7318 70.0534 70.1452 58.4909 70.1452ZM9.15755 54.7285C8.72589 54.7285 8.38672 55.0677 8.38672 55.4993V58.5827C8.38672 63.6393 8.38672 65.5202 15.3242 65.5202H58.4909C65.4284 65.5202 65.4284 63.6393 65.4284 58.5827V55.4993C65.4284 55.0677 65.0892 54.7285 64.6576 54.7285H9.15755Z" fill="#004D71"/>
<path d="M63.8867 54.7285H10.0825C8.81835 54.7285 7.77002 53.6802 7.77002 52.416V40.0827C7.77002 27.441 16.7425 16.341 29.0759 13.7202C30.895 13.3193 32.8067 13.1035 34.7492 13.1035H39.22C41.1934 13.1035 43.105 13.3193 44.9242 13.7202C57.2575 16.3718 66.1992 27.4718 66.1992 40.0827V52.416C66.1992 53.6802 65.1817 54.7285 63.8867 54.7285ZM12.395 50.1035H61.5742V40.0827C61.5742 29.6302 54.1742 20.4418 43.9375 18.2218C42.4267 17.8827 40.8542 17.7285 39.22 17.7285H34.7492C33.1459 17.7285 31.5734 17.8827 30.0625 18.2218C19.8259 20.411 12.395 29.5993 12.395 40.0827V50.1035Z" fill="#004D71"/>
<path d="M29.5692 18.2835C28.5517 18.2835 27.6267 17.6052 27.3492 16.5877C27.1026 15.6935 26.9792 14.7993 26.9792 13.8743C26.9792 8.35518 31.4809 3.85352 37.0001 3.85352C42.5192 3.85352 47.0209 8.35518 47.0209 13.8743C47.0209 14.7993 46.8976 15.6935 46.6509 16.5877C46.3426 17.7593 45.1709 18.4993 43.9376 18.2218C42.4267 17.8827 40.8542 17.7285 39.2201 17.7285H34.7492C33.1459 17.7285 31.5734 17.8827 30.0626 18.2218C29.9084 18.2527 29.7542 18.2835 29.5692 18.2835ZM34.7492 13.1035H39.2201C40.2684 13.1035 41.3476 13.1652 42.3651 13.2885C42.0876 10.5752 39.7751 8.47852 37.0001 8.47852C34.2251 8.47852 31.9434 10.5752 31.6351 13.2885C32.6834 13.1652 33.7009 13.1035 34.7492 13.1035Z" fill="#004D71"/>
<path d="M46.25 36.2285H27.75C26.4858 36.2285 25.4375 35.1802 25.4375 33.916C25.4375 32.6518 26.4858 31.6035 27.75 31.6035H46.25C47.5142 31.6035 48.5625 32.6518 48.5625 33.916C48.5625 35.1802 47.5142 36.2285 46.25 36.2285Z" fill="#004D71"/>
</svg>
