<svg width="34" height="34" viewBox="0 0 34 34" fill="none" xmlns="http://www.w3.org/2000/svg">
<path d="M16.2917 30.8125C8.28751 30.8125 1.77084 24.2958 1.77084 16.2917C1.77084 8.28751 8.28751 1.77084 16.2917 1.77084C24.2958 1.77084 30.8125 8.28751 30.8125 16.2917C30.8125 24.2958 24.2958 30.8125 16.2917 30.8125ZM16.2917 3.89584C9.44918 3.89584 3.89584 9.46334 3.89584 16.2917C3.89584 23.12 9.44918 28.6875 16.2917 28.6875C23.1342 28.6875 28.6875 23.12 28.6875 16.2917C28.6875 9.46334 23.1342 3.89584 16.2917 3.89584Z" fill="#004D71"/>
<path d="M31.1667 32.2292C30.8975 32.2292 30.6283 32.13 30.4158 31.9175L27.5825 29.0842C27.1717 28.6733 27.1717 27.9933 27.5825 27.5825C27.9933 27.1717 28.6733 27.1717 29.0842 27.5825L31.9175 30.4158C32.3283 30.8267 32.3283 31.5067 31.9175 31.9175C31.705 32.13 31.4358 32.2292 31.1667 32.2292Z" fill="#004D71"/>
</svg>
