<svg width="74" height="74" viewBox="0 0 74 74" fill="none" xmlns="http://www.w3.org/2000/svg">
<path d="M45.3249 70.1465H28.6749C13.4433 70.1465 6.96826 63.6407 6.96826 48.4399V34.5957C6.96826 33.3315 8.0166 32.2832 9.28076 32.2832C10.5449 32.2832 11.5933 33.3315 11.5933 34.5957V48.4399C11.5933 61.0507 16.0641 65.5215 28.6749 65.5215H45.2941C57.9049 65.5215 62.3758 61.0507 62.3758 48.4399V34.5957C62.3758 33.3315 63.4241 32.2832 64.6883 32.2832C65.9524 32.2832 67.0008 33.3315 67.0008 34.5957V48.4399C67.0316 63.6407 60.5258 70.1465 45.3249 70.1465Z" fill="#004D71"/>
<path d="M36.9999 39.3118C33.6083 39.3118 30.5249 37.986 28.3358 35.5502C26.1466 33.1143 25.1291 29.9385 25.4683 26.5468L27.5341 5.95018C27.6574 4.77852 28.6441 3.85352 29.8466 3.85352H44.2458C45.4483 3.85352 46.4349 4.74768 46.5583 5.95018L48.6241 26.5468C48.9633 29.9385 47.9458 33.1143 45.7566 35.5502C43.4749 37.986 40.3916 39.3118 36.9999 39.3118ZM31.9124 8.47852L30.0624 27.0093C29.8466 29.0752 30.4633 31.0177 31.7583 32.436C34.3791 35.3343 39.6208 35.3343 42.2416 32.436C43.5366 30.9868 44.1533 29.0443 43.9374 27.0093L42.0874 8.47852H31.9124Z" fill="#004D71"/>
<path d="M56.4558 39.3118C50.1966 39.3118 44.6158 34.2552 43.9683 28.0268L41.8099 6.41268C41.7483 5.76518 41.9641 5.11768 42.3958 4.62435C42.8274 4.13102 43.4441 3.85352 44.1224 3.85352H53.5266C62.5916 3.85352 66.8158 7.64602 68.0799 16.9577L68.9433 25.5293C69.3133 29.1677 68.2033 32.621 65.8291 35.2418C63.4549 37.8627 60.1249 39.3118 56.4558 39.3118ZM46.6816 8.47852L48.5933 27.5643C48.9941 31.4185 52.5708 34.6868 56.4558 34.6868C58.7991 34.6868 60.8958 33.7927 62.4066 32.1585C63.8866 30.5243 64.5649 28.3352 64.3491 25.9918L63.4858 17.5127C62.5299 10.5443 60.2791 8.47852 53.5266 8.47852H46.6816V8.47852Z" fill="#004D71"/>
<path d="M17.3901 39.3118C13.7209 39.3118 10.3909 37.8627 8.01673 35.2418C5.64257 32.621 4.53257 29.1677 4.90257 25.5293L5.73507 17.0502C7.03007 7.64602 11.2542 3.85352 20.3192 3.85352H29.7234C30.3709 3.85352 30.9876 4.13102 31.4501 4.62435C31.9126 5.11768 32.0976 5.76518 32.0359 6.41268L29.8776 28.0268C29.2301 34.2552 23.6492 39.3118 17.3901 39.3118ZM20.3192 8.47852C13.5667 8.47852 11.3159 10.5135 10.3292 17.5743L9.49673 25.9918C9.25007 28.3352 9.95923 30.5243 11.4392 32.1585C12.9192 33.7927 15.0159 34.6868 17.3901 34.6868C21.2751 34.6868 24.8826 31.4185 25.2526 27.5643L27.1642 8.47852H20.3192V8.47852Z" fill="#004D71"/>
<path d="M44.7084 70.1452H29.2917C28.0276 70.1452 26.9792 69.0968 26.9792 67.8327V60.1243C26.9792 53.6493 30.5251 50.1035 37.0001 50.1035C43.4751 50.1035 47.0209 53.6493 47.0209 60.1243V67.8327C47.0209 69.0968 45.9726 70.1452 44.7084 70.1452ZM31.6042 65.5202H42.3959V60.1243C42.3959 56.2393 40.8851 54.7285 37.0001 54.7285C33.1151 54.7285 31.6042 56.2393 31.6042 60.1243V65.5202Z" fill="#004D71"/>
</svg>
