<svg width="74" height="74" viewBox="0 0 74 74" fill="none" xmlns="http://www.w3.org/2000/svg">
<path d="M16.9896 19.5417C15.5699 19.5417 14.4062 18.378 14.4062 16.9583C14.4062 15.5354 15.5423 14.375 16.9896 14.375H17.0204C18.4401 14.375 19.6037 15.5386 19.6037 16.9583C19.6037 18.3748 18.4434 19.5417 16.9896 19.5417Z" fill="#004D71" stroke="white"/>
<path d="M57.0726 59.6249C55.6529 59.6249 54.4893 58.4613 54.4893 57.0416C54.4893 55.6186 55.6253 54.4583 57.0726 54.4583H57.1034C58.5231 54.4583 59.6868 55.6219 59.6868 57.0416C59.6868 58.458 58.5264 59.6249 57.0726 59.6249Z" fill="#004D71" stroke="white"/>
<path d="M16.8659 29.5626C9.92703 29.5626 4.26172 23.8973 4.26172 16.9584C4.26172 10.0196 9.92703 4.35425 16.8659 4.35425C23.8047 4.35425 29.4701 10.0196 29.4701 16.9584C29.4701 23.898 23.8348 29.5626 16.8659 29.5626ZM16.8659 7.97925C11.9031 7.97925 7.88672 11.9956 7.88672 16.9584C7.88672 21.9212 11.9031 25.9376 16.8659 25.9376C21.8287 25.9376 25.8451 21.9212 25.8451 16.9584C25.8451 11.9956 21.8287 7.97925 16.8659 7.97925Z" fill="#004D71" stroke="white"/>
<path d="M61.5739 69.6458H52.3239C47.9134 69.6458 44.3447 66.0772 44.3447 61.6667V52.4167C44.3447 48.0061 47.9134 44.4375 52.3239 44.4375H61.5739C65.9844 44.4375 69.5531 48.0061 69.5531 52.4167V61.6667C69.5531 66.0772 65.9844 69.6458 61.5739 69.6458ZM52.3239 48.0625C49.9202 48.0625 47.9697 50.013 47.9697 52.4167V61.6667C47.9697 64.0703 49.9202 66.0208 52.3239 66.0208H61.5739C63.9775 66.0208 65.9281 64.0703 65.9281 61.6667V52.4167C65.9281 50.013 63.9775 48.0625 61.5739 48.0625H52.3239Z" fill="#004D71" stroke="white"/>
<path d="M21.2812 55.2339L21.2797 55.2301C20.0906 52.0977 20.9576 48.6479 23.4861 46.4095C23.4864 46.4092 23.4867 46.4089 23.487 46.4087L48.1207 24.8581L48.1207 24.858C49.7963 23.3919 49.822 21.3971 49.3412 20.0578L49.3413 20.0578L49.3373 20.0473C48.8215 18.7063 47.4963 17.2292 45.2631 17.2292H36.9998C36.0118 17.2292 35.1873 16.4048 35.1873 15.4167C35.1873 14.4287 36.0118 13.6042 36.9998 13.6042H45.2631C48.6324 13.6042 51.5583 15.6341 52.7184 18.7662L52.7198 18.77C53.9089 21.9023 53.042 25.352 50.5138 27.5904C50.5134 27.5908 50.513 27.5911 50.5126 27.5915L25.8789 49.1421L25.8789 49.1421C24.2032 50.6083 24.1776 52.6031 24.6583 53.9423L24.6582 53.9424L24.6623 53.9529C25.178 55.2939 26.5033 56.7709 28.7364 56.7709H36.9998C37.9878 56.7709 38.8123 57.5954 38.8123 58.5834C38.8123 59.5714 37.9878 60.3959 36.9998 60.3959H28.7364C25.3671 60.3959 22.4412 58.3661 21.2812 55.2339Z" fill="#004D71" stroke="white"/>
</svg>
