<svg width="74" height="74" viewBox="0 0 74 74" fill="none" xmlns="http://www.w3.org/2000/svg">
<path d="M29.5627 25.7638L29.5516 26.1951L29.9766 26.2693C38.9572 27.8363 46.1637 35.0429 47.7308 44.0235L47.805 44.4485L48.2362 44.4374C58.0947 44.1838 66.0208 36.1321 66.0208 26.2084C66.0208 16.1581 57.842 7.97925 47.7917 7.97925C37.8993 7.97925 29.8163 15.9048 29.5627 25.7638ZM47.7917 48.0626C47.252 48.0626 46.6484 48.0326 46.0611 48.0017C45.1776 47.9539 44.4472 47.2321 44.3743 46.3332C43.6761 37.4857 36.4823 30.3239 27.667 29.6258C26.7682 29.553 26.0464 28.8228 25.9984 27.9393C25.9675 27.3514 25.9375 26.7788 25.9375 26.2084C25.9375 14.1512 35.7345 4.35425 47.7917 4.35425C59.8489 4.35425 69.6458 14.1512 69.6458 26.2084C69.6458 38.2656 59.8489 48.0626 47.7917 48.0626Z" fill="#004D71" stroke="white"/>
<path d="M44.3751 46.3092L44.3751 46.3092L44.3746 46.3029C43.6768 37.5173 36.514 30.3234 27.6663 29.6257L27.6626 29.6254C27.229 29.5944 26.7208 29.5625 26.2087 29.5625C16.1583 29.5625 7.97949 37.7414 7.97949 47.7917C7.97949 57.842 16.1583 66.0208 26.2087 66.0208C36.259 66.0208 44.4378 57.842 44.4378 47.7917C44.4378 47.2798 44.4059 46.7713 44.3751 46.3092ZM26.2087 69.6458C14.1515 69.6458 4.35449 59.8489 4.35449 47.7917C4.35449 35.7345 14.1515 25.9375 26.2087 25.9375C26.7465 25.9375 27.3478 25.9673 27.9332 25.9981C38.5683 26.8449 47.1858 35.4648 48.0022 46.0352L48.0059 46.1106C48.0354 46.6994 48.0628 47.2462 48.0628 47.7917C48.0628 59.8489 38.2659 69.6458 26.2087 69.6458Z" fill="#004D71" stroke="white"/>
<path d="M9.75033 8.01011V7.97925H9.25033C8.54252 7.97925 7.97949 8.54227 7.97949 9.25008V17.2359C7.97949 17.9882 8.50644 18.3094 8.75628 18.4093L8.76992 18.4148L8.78386 18.4194C8.99679 18.4904 9.60144 18.6711 10.1281 18.1444L18.1139 10.1586C18.6194 9.65313 18.5186 9.06273 18.3617 8.74899C18.3022 8.62996 18.1952 8.44345 18.0058 8.28676C17.8061 8.12148 17.5397 8.01011 17.2053 8.01011H9.75033ZM9.25033 22.1317C8.60235 22.1317 7.98865 22.0197 7.37377 21.7681C5.53059 21.0141 4.35449 19.2263 4.35449 17.2359V9.25008C4.35449 6.56622 6.56647 4.35425 9.25033 4.35425H17.2361C19.221 4.35425 20.983 5.52558 21.7696 7.37646C22.5247 9.22569 22.1033 11.3224 20.7059 12.7198L12.7227 20.703C11.7657 21.6305 10.5342 22.1317 9.25033 22.1317Z" fill="#004D71" stroke="white"/>
<path d="M65.2431 55.5907L65.2294 55.5853L65.2155 55.5806C65.0979 55.5414 64.917 55.4934 64.7182 55.4934C64.4191 55.4934 64.1102 55.6167 63.8405 55.8864L55.8547 63.8722C55.3493 64.3776 55.4499 64.9681 55.6068 65.282C55.6663 65.401 55.7733 65.5875 55.9627 65.7442C56.1624 65.9095 56.4288 66.0208 56.7632 66.0208H64.749C65.4568 66.0208 66.0199 65.4578 66.0199 64.75V56.7642C66.0199 56.0119 65.4929 55.6907 65.2431 55.5907ZM64.749 69.6458H56.7632C54.7783 69.6458 53.0164 68.4745 52.2298 66.6236C51.4747 64.7744 51.896 62.6777 53.2935 61.2803L61.2793 53.2944C62.6775 51.8963 64.7756 51.4752 66.6256 52.232C68.4688 52.986 69.6449 54.7738 69.6449 56.7642V64.75C69.6449 67.4339 67.4329 69.6458 64.749 69.6458Z" fill="#004D71" stroke="white"/>
</svg>
