<svg width="50" height="49" viewBox="0 0 50 49" fill="none" xmlns="http://www.w3.org/2000/svg">
<path d="M31.9984 1.66675H17.9984C6.33171 1.66675 1.66504 6.33341 1.66504 18.0001V32.0001C1.66504 40.8201 4.32504 45.6501 10.6717 47.4467C11.185 41.3801 17.415 36.5967 24.9984 36.5967C32.5817 36.5967 38.8117 41.3801 39.325 47.4467C45.6717 45.6501 48.3317 40.8201 48.3317 32.0001V18.0001C48.3317 6.33341 43.665 1.66675 31.9984 1.66675ZM24.9984 30.0634C20.3784 30.0634 16.645 26.3068 16.645 21.6868C16.645 17.0668 20.3784 13.3334 24.9984 13.3334C29.6184 13.3334 33.3517 17.0668 33.3517 21.6868C33.3517 26.3068 29.6184 30.0634 24.9984 30.0634Z" stroke="#004D71" stroke-width="2.5" stroke-linecap="round" stroke-linejoin="round"/>
</svg>
