<svg width="56" height="56" viewBox="0 0 56 56" fill="none" xmlns="http://www.w3.org/2000/svg">
<rect x="0.650146" y="0.5" width="55" height="55" rx="27.5" fill="#DEE9EE"/>
<path d="M28.3835 26.352C28.2377 26.3375 28.0627 26.3375 27.9023 26.352C24.4314 26.2354 21.6752 23.3916 21.6752 19.8916C21.6752 16.3187 24.5627 13.4166 28.1502 13.4166C31.7231 13.4166 34.6252 16.3187 34.6252 19.8916C34.6106 23.3916 31.8543 26.2354 28.3835 26.352Z" stroke="#004D71" stroke-width="1.5" stroke-linecap="round" stroke-linejoin="round"/>
<path d="M21.0918 31.7334C17.5627 34.0959 17.5627 37.9459 21.0918 40.2938C25.1022 42.9771 31.6793 42.9771 35.6897 40.2938C39.2189 37.9313 39.2189 34.0813 35.6897 31.7334C31.6939 29.0646 25.1168 29.0646 21.0918 31.7334Z" stroke="#004D71" stroke-width="1.5" stroke-linecap="round" stroke-linejoin="round"/>
</svg>
